<?xml version="1.0" encoding="UTF-8"?>
<!DOCTYPE svg PUBLIC "-//W3C//DTD SVG 1.1//EN" "http://www.w3.org/Graphics/SVG/1.1/DTD/svg11.dtd">
<svg xmlns="http://www.w3.org/2000/svg" version="1.1" width="2968px" height="3114px" style="shape-rendering:geometricPrecision; text-rendering:geometricPrecision; image-rendering:optimizeQuality; fill-rule:evenodd; clip-rule:evenodd" xmlns:xlink="http://www.w3.org/1999/xlink">
<g><path style="opacity:0.998" fill="#0076f7" d="M 1435.5,393.5 C 1739.33,385.248 2004.33,481.081 2230.5,681C 2443.16,877.825 2563.66,1121.32 2592,1411.5C 2613.95,1717.27 2528.28,1987.94 2335,2223.5C 2149.69,2439.12 1915.52,2567.95 1632.5,2610C 1350.87,2644.92 1092.2,2584.25 856.5,2428C 639.215,2277.29 491.715,2075.12 414,1821.5C 363.061,1644.38 355.394,1465.38 391,1284.5C 450.55,1008.73 591.716,785.56 814.5,615C 998.698,478.867 1205.7,405.034 1435.5,393.5 Z"/></g>
<g><path style="opacity:1" fill="#f5f0ac" d="M 2144.5,1068.5 C 1923.74,1069.17 1703.07,1069.83 1482.5,1070.5C 1261.83,1070.5 1041.17,1070.5 820.5,1070.5C 820.26,1060.42 819.76,1050.42 819,1040.5C 821.739,1037.88 824.573,1035.38 827.5,1033C 850.438,1018.39 873.105,1003.39 895.5,988C 901.128,983.943 906.628,979.777 912,975.5C 912.333,944.833 912.667,914.167 913,883.5C 915.592,880.238 918.759,877.738 922.5,876C 945.784,867.365 969.117,858.698 992.5,850C 995.789,849.118 999.123,848.452 1002.5,848C 1324.19,847.004 1645.86,847.338 1967.5,849C 1993.69,858.194 2019.69,867.86 2045.5,878C 2047.96,879.458 2050.13,881.291 2052,883.5C 2052.18,914.363 2052.68,945.196 2053.5,976C 2084.12,997.651 2115.12,1018.82 2146.5,1039.5C 2147.8,1044.97 2147.3,1050.3 2145,1055.5C 2144.5,1059.82 2144.33,1064.15 2144.5,1068.5 Z"/></g>
<g><path style="opacity:1" fill="#fae400" d="M 1984.5,931.5 C 2005.83,946.167 2027.17,960.833 2048.5,975.5C 2051,978.832 2054,981.666 2057.5,984C 2071.72,992.605 2085.39,1001.94 2098.5,1012C 2113.69,1021.86 2128.85,1031.7 2144,1041.5C 2144.5,1043.81 2144.66,1046.14 2144.5,1048.5C 2090.17,1048.5 2035.83,1048.5 1981.5,1048.5C 1981.33,1009.83 1981.5,971.165 1982,932.5C 1982.67,931.748 1983.5,931.414 1984.5,931.5 Z"/></g>
<g><path style="opacity:1" fill="#fae400" d="M 980.5,931.5 C 981.5,931.5 982.5,931.5 983.5,931.5C 983.5,970.5 983.5,1009.5 983.5,1048.5C 929.167,1048.5 874.833,1048.5 820.5,1048.5C 820.338,1046.47 820.505,1044.47 821,1042.5C 851.897,1020.6 883.064,999.101 914.5,978C 915.823,977.184 916.489,976.017 916.5,974.5C 938.15,960.672 959.483,946.339 980.5,931.5 Z"/></g>
<g><path style="opacity:1" fill="#feb000" d="M 2049.5,892.5 C 2049.79,920.188 2049.46,947.855 2048.5,975.5C 2027.17,960.833 2005.83,946.167 1984.5,931.5C 1985.93,923.507 1989.93,916.674 1996.5,911C 2014.08,904.53 2031.74,898.363 2049.5,892.5 Z"/></g>
<g><path style="opacity:1" fill="#feb000" d="M 915.5,892.5 C 933.112,898.76 950.778,904.926 968.5,911C 974.447,916.654 978.447,923.487 980.5,931.5C 959.483,946.339 938.15,960.672 916.5,974.5C 915.517,947.211 915.184,919.878 915.5,892.5 Z"/></g>
<g><path style="opacity:1" fill="#fecc00" d="M 2049.5,892.5 C 2031.74,898.363 2014.08,904.53 1996.5,911C 1989.93,916.674 1985.93,923.507 1984.5,931.5C 1983.5,931.414 1982.67,931.748 1982,932.5C 1981.5,971.165 1981.33,1009.83 1981.5,1048.5C 2035.83,1048.5 2090.17,1048.5 2144.5,1048.5C 2144.71,1050.14 2144.38,1051.64 2143.5,1053C 1999.17,1053.5 1854.83,1053.67 1710.5,1053.5C 1710.5,1053.17 1710.5,1052.83 1710.5,1052.5C 1711.5,1052.5 1712.5,1052.5 1713.5,1052.5C 1722.83,1052.5 1732.17,1052.5 1741.5,1052.5C 1750.83,1052.5 1760.17,1052.5 1769.5,1052.5C 1777.5,1052.5 1785.5,1052.5 1793.5,1052.5C 1801.17,1052.5 1808.83,1052.5 1816.5,1052.5C 1822.5,1052.5 1828.5,1052.5 1834.5,1052.5C 1842.17,1052.67 1849.84,1052.5 1857.5,1052C 1707.64,945.375 1541.64,907.375 1359.5,938C 1316.31,946.23 1274.31,958.397 1233.5,974.5C 1235.31,971.556 1237.14,968.556 1239,965.5C 1245.81,943.283 1238.64,927.45 1217.5,918C 1195.58,913.541 1180.74,921.708 1173,942.5C 1170.01,968.001 1181.17,982.668 1206.5,986.5C 1167.67,1004.86 1131.01,1026.69 1096.5,1052C 1101.82,1052.5 1107.16,1052.67 1112.5,1052.5C 1112.5,1052.83 1112.5,1053.17 1112.5,1053.5C 1015.5,1053.67 918.499,1053.5 821.5,1053C 820.62,1051.64 820.286,1050.14 820.5,1048.5C 874.833,1048.5 929.167,1048.5 983.5,1048.5C 983.5,1009.5 983.5,970.5 983.5,931.5C 982.5,931.5 981.5,931.5 980.5,931.5C 978.447,923.487 974.447,916.654 968.5,911C 950.778,904.926 933.112,898.76 915.5,892.5C 914.372,885.258 917.372,880.758 924.5,879C 950.09,869.47 975.757,860.136 1001.5,851C 1320.83,850.333 1640.17,850.333 1959.5,851C 1964.96,851.826 1970.3,853.159 1975.5,855C 1996.9,863.58 2018.57,871.58 2040.5,879C 2043.73,880.198 2046.56,882.031 2049,884.5C 2049.5,887.146 2049.66,889.813 2049.5,892.5 Z"/></g>
<g><path style="opacity:1" fill="#fcaa00" d="M 1769.5,1052.5 C 1760.17,1052.5 1750.83,1052.5 1741.5,1052.5C 1648.69,1004.84 1550.03,983.669 1445.5,989C 1363.08,993.77 1285.08,1014.77 1211.5,1052C 1220.83,1052.5 1230.16,1052.67 1239.5,1052.5C 1248.5,1052.5 1257.5,1052.5 1266.5,1052.5C 1280.83,1052.5 1295.17,1052.5 1309.5,1052.5C 1322.17,1052.5 1334.83,1052.5 1347.5,1052.5C 1433.83,1052.5 1520.17,1052.5 1606.5,1052.5C 1619.17,1052.5 1631.83,1052.5 1644.5,1052.5C 1658.83,1052.5 1673.17,1052.5 1687.5,1052.5C 1695.17,1052.5 1702.83,1052.5 1710.5,1052.5C 1710.5,1052.83 1710.5,1053.17 1710.5,1053.5C 1511.17,1053.5 1311.83,1053.5 1112.5,1053.5C 1112.5,1053.17 1112.5,1052.83 1112.5,1052.5C 1114.5,1052.5 1116.5,1052.5 1118.5,1052.5C 1124.83,1052.5 1131.17,1052.5 1137.5,1052.5C 1145.17,1052.5 1152.83,1052.5 1160.5,1052.5C 1168.51,1052.67 1176.51,1052.5 1184.5,1052C 1311.87,981.772 1447.2,959.772 1590.5,986C 1654.01,998.22 1713.67,1020.39 1769.5,1052.5 Z"/></g>
<g><path style="opacity:1" fill="#fec400" d="M 1834.5,1052.5 C 1741.1,987.858 1637.43,951.025 1523.5,942C 1375.42,932.436 1240.42,969.27 1118.5,1052.5C 1116.5,1052.5 1114.5,1052.5 1112.5,1052.5C 1107.16,1052.67 1101.82,1052.5 1096.5,1052C 1131.01,1026.69 1167.67,1004.86 1206.5,986.5C 1211.67,986.124 1216.67,984.958 1221.5,983C 1225.66,980.336 1229.66,977.503 1233.5,974.5C 1274.31,958.397 1316.31,946.23 1359.5,938C 1541.64,907.375 1707.64,945.375 1857.5,1052C 1849.84,1052.5 1842.17,1052.67 1834.5,1052.5 Z"/></g>
<g><path style="opacity:1" fill="#ffbd00" d="M 1834.5,1052.5 C 1828.5,1052.5 1822.5,1052.5 1816.5,1052.5C 1685.85,968.345 1543.18,936.512 1388.5,957C 1297.56,970.47 1213.89,1002.3 1137.5,1052.5C 1131.17,1052.5 1124.83,1052.5 1118.5,1052.5C 1240.42,969.27 1375.42,932.436 1523.5,942C 1637.43,951.025 1741.1,987.858 1834.5,1052.5 Z"/></g>
<g><path style="opacity:1" fill="#ffb800" d="M 1816.5,1052.5 C 1808.83,1052.5 1801.17,1052.5 1793.5,1052.5C 1669.2,977.538 1534.87,949.705 1390.5,969C 1307.83,980.94 1231.16,1008.77 1160.5,1052.5C 1152.83,1052.5 1145.17,1052.5 1137.5,1052.5C 1213.89,1002.3 1297.56,970.47 1388.5,957C 1543.18,936.512 1685.85,968.345 1816.5,1052.5 Z"/></g>
<g><path style="opacity:1" fill="#ffb200" d="M 1793.5,1052.5 C 1785.5,1052.5 1777.5,1052.5 1769.5,1052.5C 1713.67,1020.39 1654.01,998.22 1590.5,986C 1447.2,959.772 1311.87,981.772 1184.5,1052C 1176.51,1052.5 1168.51,1052.67 1160.5,1052.5C 1231.16,1008.77 1307.83,980.94 1390.5,969C 1534.87,949.705 1669.2,977.538 1793.5,1052.5 Z"/></g>
<g><path style="opacity:1" fill="#ffa500" d="M 1741.5,1052.5 C 1732.17,1052.5 1722.83,1052.5 1713.5,1052.5C 1638.66,1017.75 1559.83,1000.42 1477,1000.5C 1393.87,1000.42 1314.7,1017.76 1239.5,1052.5C 1230.16,1052.67 1220.83,1052.5 1211.5,1052C 1285.08,1014.77 1363.08,993.77 1445.5,989C 1550.03,983.669 1648.69,1004.84 1741.5,1052.5 Z"/></g>
<g><path style="opacity:1" fill="#ff9f00" d="M 1713.5,1052.5 C 1712.5,1052.5 1711.5,1052.5 1710.5,1052.5C 1702.83,1052.5 1695.17,1052.5 1687.5,1052.5C 1555.06,999.805 1421.39,996.971 1286.5,1044C 1279.61,1046.57 1272.94,1049.4 1266.5,1052.5C 1257.5,1052.5 1248.5,1052.5 1239.5,1052.5C 1314.7,1017.76 1393.87,1000.42 1477,1000.5C 1559.83,1000.42 1638.66,1017.75 1713.5,1052.5 Z"/></g>
<g><path style="opacity:1" fill="#ff9900" d="M 1687.5,1052.5 C 1673.17,1052.5 1658.83,1052.5 1644.5,1052.5C 1549.86,1021.97 1453.86,1017.47 1356.5,1039C 1340.4,1042.44 1324.73,1046.94 1309.5,1052.5C 1295.17,1052.5 1280.83,1052.5 1266.5,1052.5C 1272.94,1049.4 1279.61,1046.57 1286.5,1044C 1421.39,996.971 1555.06,999.805 1687.5,1052.5 Z"/></g>
<g><path style="opacity:1" fill="#ff9200" d="M 1644.5,1052.5 C 1631.83,1052.5 1619.17,1052.5 1606.5,1052.5C 1542.44,1036.12 1477.44,1031.95 1411.5,1040C 1389.73,1042.59 1368.39,1046.76 1347.5,1052.5C 1334.83,1052.5 1322.17,1052.5 1309.5,1052.5C 1324.73,1046.94 1340.4,1042.44 1356.5,1039C 1453.86,1017.47 1549.86,1021.97 1644.5,1052.5 Z"/></g>
<g><path style="opacity:1" fill="#ff8e00" d="M 1606.5,1052.5 C 1520.17,1052.5 1433.83,1052.5 1347.5,1052.5C 1368.39,1046.76 1389.73,1042.59 1411.5,1040C 1477.44,1031.95 1542.44,1036.12 1606.5,1052.5 Z"/></g>
<g><path style="opacity:1" fill="#c2a600" d="M 1750.5,916.5 C 1763.98,915 1775.48,919 1785,928.5C 1793.87,941.498 1794.87,955.165 1788,969.5C 1775.88,985.74 1760.38,989.907 1741.5,982C 1723.93,970.247 1719.1,954.414 1727,934.5C 1732.69,925.638 1740.52,919.638 1750.5,916.5 Z"/></g>
<g><path style="opacity:1" fill="#c2a600" d="M 1233.5,974.5 C 1229.66,977.503 1225.66,980.336 1221.5,983C 1216.67,984.958 1211.67,986.124 1206.5,986.5C 1181.17,982.668 1170.01,968.001 1173,942.5C 1180.74,921.708 1195.58,913.541 1217.5,918C 1238.64,927.45 1245.81,943.283 1239,965.5C 1237.14,968.556 1235.31,971.556 1233.5,974.5 Z"/></g>
<g><path style="opacity:1" fill="#e5e7b0" d="M 2144.5,1068.5 C 2144.5,1069.17 2144.5,1069.83 2144.5,1070.5C 1923.83,1070.5 1703.17,1070.5 1482.5,1070.5C 1703.07,1069.83 1923.74,1069.17 2144.5,1068.5 Z"/></g>
<g><path style="opacity:1" fill="#f9e600" d="M 820.5,1070.5 C 1041.17,1070.5 1261.83,1070.5 1482.5,1070.5C 1703.17,1070.5 1923.83,1070.5 2144.5,1070.5C 2144.46,1071.76 2144.96,1072.76 2146,1073.5C 2146.83,1417.17 2146.67,1760.83 2145.5,2104.5C 2142.04,2118.09 2135.87,2130.42 2127,2141.5C 2114.71,2153.89 2099.88,2161.39 2082.5,2164C 1955.5,2164.5 1828.5,2164.67 1701.5,2164.5C 1701.5,2163.17 1701.5,2161.83 1701.5,2160.5C 1713.73,2090.81 1726.06,2021.14 1738.5,1951.5C 1777.17,1951.67 1815.83,1951.5 1854.5,1951C 1875.1,1944.79 1889.93,1931.96 1899,1912.5C 1912.53,1881.99 1918.53,1849.99 1917,1816.5C 1915.34,1794.69 1903.84,1782.02 1882.5,1778.5C 1845.32,1778.16 1808.32,1777.16 1771.5,1775.5C 1778.37,1734.99 1786.2,1694.66 1795,1654.5C 1803.69,1625.61 1818.19,1600.11 1838.5,1578C 1860.56,1557.64 1886.56,1545.31 1916.5,1541C 1936.15,1539.86 1955.81,1539.19 1975.5,1539C 1989.76,1538.71 2003.76,1536.71 2017.5,1533C 2029.53,1529.64 2037.69,1522.14 2042,1510.5C 2042.41,1475.54 2036.74,1441.54 2025,1408.5C 2015.88,1384.06 1998.38,1369.89 1972.5,1366C 1897.79,1358.54 1825.79,1369.2 1756.5,1398C 1719.12,1414.94 1686.12,1437.77 1657.5,1466.5C 1653.83,1468.17 1651.17,1470.83 1649.5,1474.5C 1625.05,1498.14 1604.88,1525.14 1589,1555.5C 1572.2,1587.56 1559.53,1621.22 1551,1656.5C 1542.52,1696.58 1534.68,1736.75 1527.5,1777C 1453.83,1777.33 1380.17,1777.67 1306.5,1778C 1256.07,1783.1 1205.74,1788.6 1155.5,1794.5C 1152.61,1794.19 1149.95,1794.53 1147.5,1795.5C 1129.8,1797.3 1112.13,1799.3 1094.5,1801.5C 1092.65,1801.23 1091.99,1801.57 1092.5,1802.5C 1094.41,1803.35 1096.41,1803.68 1098.5,1803.5C 1162.73,1813.84 1227.07,1823.68 1291.5,1833C 1294.88,1842.01 1297.88,1851.18 1300.5,1860.5C 1260.59,1864.74 1220.59,1868.24 1180.5,1871C 1179.38,1871.25 1178.38,1871.75 1177.5,1872.5C 1219.76,1879.08 1262.09,1885.25 1304.5,1891C 1305.42,1891.37 1306.25,1891.87 1307,1892.5C 1308.95,1899.76 1310.45,1907.09 1311.5,1914.5C 1188.49,1920.93 1065.49,1927.6 942.5,1934.5C 936.463,1934.17 930.463,1934.5 924.5,1935.5C 926.045,1936.45 927.712,1936.79 929.5,1936.5C 1056.49,1941.21 1183.49,1946.04 1310.5,1951C 1371.83,1951.5 1433.17,1951.67 1494.5,1951.5C 1481.63,2021.74 1469.29,2092.07 1457.5,2162.5C 1456.66,2162.84 1456.33,2163.51 1456.5,2164.5C 1265.87,2165.66 1075.21,2165.83 884.5,2165C 849.415,2159.92 827.581,2140.09 819,2105.5C 818.333,1761.17 818.333,1416.83 819,1072.5C 819.278,1071.58 819.778,1070.92 820.5,1070.5 Z"/></g>
<g><path style="opacity:1" fill="#fefefb" d="M 1219.5,1127.5 C 1205.86,1126.47 1192.19,1126.47 1178.5,1127.5C 1185.78,1108.78 1197.78,1105.28 1214.5,1117C 1217.8,1119.78 1219.47,1123.28 1219.5,1127.5 Z"/></g>
<g><path style="opacity:1" fill="#fefdf8" d="M 1782.5,1123.5 C 1769.95,1123.32 1757.62,1121.65 1745.5,1118.5C 1750.23,1110.53 1757.23,1107.69 1766.5,1110C 1774.79,1111.14 1780.13,1115.64 1782.5,1123.5 Z"/></g>
<g><path style="opacity:1" fill="#d5d4d4" d="M 1745.5,1118.5 C 1757.62,1121.65 1769.95,1123.32 1782.5,1123.5C 1783.49,1124.8 1784.49,1126.13 1785.5,1127.5C 1771.51,1127.38 1757.84,1125.38 1744.5,1121.5C 1744.26,1120.21 1744.6,1119.21 1745.5,1118.5 Z"/></g>
<g><path style="opacity:1" fill="#d4d4d4" d="M 1219.5,1127.5 C 1219.5,1128.83 1219.5,1130.17 1219.5,1131.5C 1205.85,1130.31 1192.18,1130.31 1178.5,1131.5C 1178.5,1130.5 1178.5,1129.5 1178.5,1128.5C 1178.5,1128.17 1178.5,1127.83 1178.5,1127.5C 1192.19,1126.47 1205.86,1126.47 1219.5,1127.5 Z"/></g>
<g><path style="opacity:1" fill="#fefefc" d="M 1178.5,1128.5 C 1178.5,1129.5 1178.5,1130.5 1178.5,1131.5C 1192.18,1130.31 1205.85,1130.31 1219.5,1131.5C 1220.17,1141.49 1220.5,1151.49 1220.5,1161.5C 1206.37,1162.4 1192.71,1165.4 1179.5,1170.5C 1177.49,1156.39 1177.16,1142.39 1178.5,1128.5 Z"/></g>
<g><path style="opacity:1" fill="#d5d5d4" d="M 1786.5,1158.5 C 1786.78,1160.41 1786.45,1162.08 1785.5,1163.5C 1771.56,1160.63 1757.56,1157.97 1743.5,1155.5C 1743.5,1154.17 1743.5,1152.83 1743.5,1151.5C 1756.71,1153.9 1769.87,1156.56 1783,1159.5C 1784.26,1159.35 1785.42,1159.02 1786.5,1158.5 Z"/></g>
<g><path style="opacity:1" fill="#fefefc" d="M 1744.5,1121.5 C 1757.84,1125.38 1771.51,1127.38 1785.5,1127.5C 1787.76,1137.74 1788.09,1148.08 1786.5,1158.5C 1785.42,1159.02 1784.26,1159.35 1783,1159.5C 1769.87,1156.56 1756.71,1153.9 1743.5,1151.5C 1743.5,1152.83 1743.5,1154.17 1743.5,1155.5C 1757.56,1157.97 1771.56,1160.63 1785.5,1163.5C 1785.22,1170.84 1784.72,1178.18 1784,1185.5C 1781.15,1188.61 1779.98,1192.28 1780.5,1196.5C 1766.41,1193.03 1752.74,1188.36 1739.5,1182.5C 1742.03,1163.28 1743.2,1143.94 1743,1124.5C 1743.51,1123.47 1744.01,1122.47 1744.5,1121.5 Z"/></g>
<g><path style="opacity:1" fill="#d4d4d3" d="M 1220.5,1161.5 C 1220.5,1162.5 1220.5,1163.5 1220.5,1164.5C 1206.67,1166.19 1193.34,1169.53 1180.5,1174.5C 1179.57,1173.43 1179.23,1172.1 1179.5,1170.5C 1192.71,1165.4 1206.37,1162.4 1220.5,1161.5 Z"/></g>
<g><path style="opacity:1" fill="#fefefc" d="M 1220.5,1161.5 C 1222.21,1174.34 1225.21,1187.01 1229.5,1199.5C 1219.01,1203.08 1209.34,1208.25 1200.5,1215C 1197.93,1216.45 1195.26,1217.62 1192.5,1218.5C 1186.86,1204.31 1182.86,1189.64 1180.5,1174.5C 1193.34,1169.53 1206.67,1166.19 1220.5,1164.5C 1220.5,1163.5 1220.5,1162.5 1220.5,1161.5 Z"/></g>
<g><path style="opacity:1" fill="#d4d4d3" d="M 1739.5,1182.5 C 1752.74,1188.36 1766.41,1193.03 1780.5,1196.5C 1780.57,1197.96 1780.23,1199.29 1779.5,1200.5C 1765.55,1196.63 1751.88,1191.96 1738.5,1186.5C 1738.23,1184.9 1738.57,1183.57 1739.5,1182.5 Z"/></g>
<g><path style="opacity:1" fill="#fefefd" d="M 1738.5,1186.5 C 1751.88,1191.96 1765.55,1196.63 1779.5,1200.5C 1776.15,1215.01 1771.15,1228.68 1764.5,1241.5C 1750.9,1237.2 1737.9,1231.53 1725.5,1224.5C 1731.03,1212.24 1735.36,1199.58 1738.5,1186.5 Z"/></g>
<g><path style="opacity:1" fill="#d5d4d4" d="M 1229.5,1199.5 C 1230.11,1200.39 1230.44,1201.39 1230.5,1202.5C 1225.07,1204.71 1219.74,1207.21 1214.5,1210C 1208.21,1214.79 1201.55,1218.95 1194.5,1222.5C 1193.33,1221.49 1192.66,1220.15 1192.5,1218.5C 1195.26,1217.62 1197.93,1216.45 1200.5,1215C 1209.34,1208.25 1219.01,1203.08 1229.5,1199.5 Z"/></g>
<g><path style="opacity:1" fill="#fefefd" d="M 1230.5,1202.5 C 1234.97,1213.43 1239.97,1224.1 1245.5,1234.5C 1240.41,1238.56 1235.08,1242.39 1229.5,1246C 1223.97,1250.36 1218.97,1255.2 1214.5,1260.5C 1206.52,1248.52 1199.86,1235.86 1194.5,1222.5C 1201.55,1218.95 1208.21,1214.79 1214.5,1210C 1219.74,1207.21 1225.07,1204.71 1230.5,1202.5 Z"/></g>
<g><path style="opacity:1" fill="#d5d5d4" d="M 1725.5,1224.5 C 1737.9,1231.53 1750.9,1237.2 1764.5,1241.5C 1764.77,1243.38 1764.1,1244.71 1762.5,1245.5C 1749.94,1241.26 1737.94,1235.76 1726.5,1229C 1725.62,1228.29 1724.95,1227.46 1724.5,1226.5C 1724.33,1225.51 1724.66,1224.84 1725.5,1224.5 Z"/></g>
<g><path style="opacity:1" fill="#fefefc" d="M 1724.5,1226.5 C 1724.95,1227.46 1725.62,1228.29 1726.5,1229C 1737.94,1235.76 1749.94,1241.26 1762.5,1245.5C 1760.68,1251.13 1758.35,1256.46 1755.5,1261.5C 1750.85,1268.13 1746.18,1274.8 1741.5,1281.5C 1728.48,1275.33 1716.48,1267.66 1705.5,1258.5C 1712.88,1248.39 1719.22,1237.73 1724.5,1226.5 Z"/></g>
<g><path style="opacity:1" fill="#d5d4d4" d="M 1245.5,1234.5 C 1246.5,1234.83 1247.17,1235.5 1247.5,1236.5C 1247.59,1237.5 1247.25,1238.33 1246.5,1239C 1240.89,1242.28 1235.56,1245.94 1230.5,1250C 1225.96,1254.7 1221.3,1259.2 1216.5,1263.5C 1215.6,1262.71 1214.93,1261.71 1214.5,1260.5C 1218.97,1255.2 1223.97,1250.36 1229.5,1246C 1235.08,1242.39 1240.41,1238.56 1245.5,1234.5 Z"/></g>
<g><path style="opacity:1" fill="#fefefd" d="M 1247.5,1236.5 C 1255.04,1247.72 1263.37,1258.38 1272.5,1268.5C 1258.44,1270.52 1247.78,1277.52 1240.5,1289.5C 1239.68,1290.39 1238.68,1290.72 1237.5,1290.5C 1237.17,1289.5 1236.5,1288.83 1235.5,1288.5C 1228.78,1280.45 1222.45,1272.12 1216.5,1263.5C 1221.3,1259.2 1225.96,1254.7 1230.5,1250C 1235.56,1245.94 1240.89,1242.28 1246.5,1239C 1247.25,1238.33 1247.59,1237.5 1247.5,1236.5 Z"/></g>
<g><path style="opacity:1" fill="#d4d4d3" d="M 1705.5,1258.5 C 1716.48,1267.66 1728.48,1275.33 1741.5,1281.5C 1740.97,1283.23 1739.97,1284.56 1738.5,1285.5C 1726.31,1278.31 1714.64,1270.31 1703.5,1261.5C 1704.17,1260.5 1704.83,1259.5 1705.5,1258.5 Z"/></g>
<g><path style="opacity:1" fill="#fefefd" d="M 1703.5,1261.5 C 1714.64,1270.31 1726.31,1278.31 1738.5,1285.5C 1732.66,1293.13 1726.33,1300.46 1719.5,1307.5C 1715.81,1310.53 1712.47,1313.86 1709.5,1317.5C 1699.83,1311.33 1692,1303.33 1686,1293.5C 1684.55,1290.93 1683.38,1288.26 1682.5,1285.5C 1689.53,1277.47 1696.53,1269.47 1703.5,1261.5 Z"/></g>
<g><path style="opacity:1" fill="#d5d4d3" d="M 1272.5,1268.5 C 1273.83,1269.17 1274.83,1270.17 1275.5,1271.5C 1259.89,1273.62 1248.56,1281.62 1241.5,1295.5C 1240.2,1293.86 1238.86,1292.19 1237.5,1290.5C 1238.68,1290.72 1239.68,1290.39 1240.5,1289.5C 1247.78,1277.52 1258.44,1270.52 1272.5,1268.5 Z"/></g>
<g><path style="opacity:1" fill="#c2a600" d="M 1755.5,1261.5 C 1735.47,1308.76 1707.13,1350.26 1670.5,1386C 1652.53,1399.66 1633.86,1412.32 1614.5,1424C 1567.11,1447.01 1517.11,1457.34 1464.5,1455C 1421.23,1449.69 1381.23,1435.36 1344.5,1412C 1309.5,1390 1280,1362.16 1256,1328.5C 1247.85,1315.86 1241.02,1302.53 1235.5,1288.5C 1236.5,1288.83 1237.17,1289.5 1237.5,1290.5C 1238.86,1292.19 1240.2,1293.86 1241.5,1295.5C 1249.51,1303.51 1257.84,1311.17 1266.5,1318.5C 1267.17,1319.83 1268.17,1320.83 1269.5,1321.5C 1271.17,1322.83 1272.83,1324.17 1274.5,1325.5C 1273.47,1325.9 1273.31,1326.56 1274,1327.5C 1338.2,1400.58 1419.04,1432.75 1516.5,1424C 1602.75,1417.81 1670.59,1379.64 1720,1309.5C 1720.69,1308.56 1720.53,1307.9 1719.5,1307.5C 1726.33,1300.46 1732.66,1293.13 1738.5,1285.5C 1739.97,1284.56 1740.97,1283.23 1741.5,1281.5C 1746.18,1274.8 1750.85,1268.13 1755.5,1261.5 Z"/></g>
<g><path style="opacity:1" fill="#fefefc" d="M 1275.5,1271.5 C 1282.23,1278.23 1289.23,1284.56 1296.5,1290.5C 1290.55,1292.62 1285.22,1295.78 1280.5,1300C 1274.96,1305.61 1270.3,1311.77 1266.5,1318.5C 1257.84,1311.17 1249.51,1303.51 1241.5,1295.5C 1248.56,1281.62 1259.89,1273.62 1275.5,1271.5 Z"/></g>
<g><path style="opacity:1" fill="#d5d4d4" d="M 1682.5,1285.5 C 1683.38,1288.26 1684.55,1290.93 1686,1293.5C 1692,1303.33 1699.83,1311.33 1709.5,1317.5C 1709.03,1318.91 1708.03,1319.57 1706.5,1319.5C 1694.49,1311.83 1685.49,1301.5 1679.5,1288.5C 1680.17,1287.17 1681.17,1286.17 1682.5,1285.5 Z"/></g>
<g><path style="opacity:1" fill="#fefefd" d="M 1679.5,1288.5 C 1685.49,1301.5 1694.49,1311.83 1706.5,1319.5C 1694.24,1330.78 1680.91,1340.44 1666.5,1348.5C 1660.49,1335.78 1655.49,1322.78 1651.5,1309.5C 1661.18,1302.99 1670.52,1295.99 1679.5,1288.5 Z"/></g>
<g><path style="opacity:1" fill="#d5d5d3" d="M 1296.5,1290.5 C 1298.75,1291.12 1300.42,1292.46 1301.5,1294.5C 1299.14,1294.34 1296.81,1294.5 1294.5,1295C 1283.55,1301.42 1275.22,1310.25 1269.5,1321.5C 1268.17,1320.83 1267.17,1319.83 1266.5,1318.5C 1270.3,1311.77 1274.96,1305.61 1280.5,1300C 1285.22,1295.78 1290.55,1292.62 1296.5,1290.5 Z"/></g>
<g><path style="opacity:1" fill="#fefefd" d="M 1301.5,1294.5 C 1310.52,1301.34 1319.86,1307.67 1329.5,1313.5C 1323.65,1316.84 1318.48,1321.17 1314,1326.5C 1310.39,1332.73 1306.56,1338.73 1302.5,1344.5C 1292.64,1338.97 1283.3,1332.64 1274.5,1325.5C 1272.83,1324.17 1271.17,1322.83 1269.5,1321.5C 1275.22,1310.25 1283.55,1301.42 1294.5,1295C 1296.81,1294.5 1299.14,1294.34 1301.5,1294.5 Z"/></g>
<g><path style="opacity:1" fill="#fae705" d="M 1719.5,1307.5 C 1720.53,1307.9 1720.69,1308.56 1720,1309.5C 1670.59,1379.64 1602.75,1417.81 1516.5,1424C 1419.04,1432.75 1338.2,1400.58 1274,1327.5C 1273.31,1326.56 1273.47,1325.9 1274.5,1325.5C 1283.3,1332.64 1292.64,1338.97 1302.5,1344.5C 1302.97,1345.91 1303.97,1346.57 1305.5,1346.5C 1318.44,1354.8 1332.11,1361.8 1346.5,1367.5C 1346.84,1368.34 1347.51,1368.67 1348.5,1368.5C 1360.4,1373.8 1372.74,1378.14 1385.5,1381.5C 1386.21,1382.4 1387.21,1382.74 1388.5,1382.5C 1399.91,1386.18 1411.57,1388.85 1423.5,1390.5C 1424.17,1390.5 1424.83,1390.5 1425.5,1390.5C 1440.22,1393.31 1455.22,1394.64 1470.5,1394.5C 1488.02,1395.42 1505.69,1395.08 1523.5,1393.5C 1525.41,1393.78 1527.08,1393.45 1528.5,1392.5C 1545.17,1391.1 1561.5,1388.43 1577.5,1384.5C 1578.49,1384.67 1579.16,1384.34 1579.5,1383.5C 1592.86,1380.91 1605.86,1377.24 1618.5,1372.5C 1620.15,1372.34 1621.49,1371.67 1622.5,1370.5C 1636.91,1365.13 1650.57,1358.46 1663.5,1350.5C 1665.03,1350.57 1666.03,1349.91 1666.5,1348.5C 1680.91,1340.44 1694.24,1330.78 1706.5,1319.5C 1708.03,1319.57 1709.03,1318.91 1709.5,1317.5C 1712.47,1313.86 1715.81,1310.53 1719.5,1307.5 Z"/></g>
<g><path style="opacity:1" fill="#d4d4d4" d="M 1651.5,1309.5 C 1655.49,1322.78 1660.49,1335.78 1666.5,1348.5C 1666.03,1349.91 1665.03,1350.57 1663.5,1350.5C 1656.65,1337.96 1651.99,1324.63 1649.5,1310.5C 1650.17,1310.17 1650.83,1309.83 1651.5,1309.5 Z"/></g>
<g><path style="opacity:1" fill="#fefefd" d="M 1649.5,1310.5 C 1651.99,1324.63 1656.65,1337.96 1663.5,1350.5C 1650.57,1358.46 1636.91,1365.13 1622.5,1370.5C 1616.78,1357.32 1614.11,1343.65 1614.5,1329.5C 1626.61,1323.95 1638.28,1317.61 1649.5,1310.5 Z"/></g>
<g><path style="opacity:1" fill="#d4d4d3" d="M 1329.5,1313.5 C 1331.67,1313.75 1333.34,1314.75 1334.5,1316.5C 1328.11,1318.7 1322.61,1322.37 1318,1327.5C 1313.81,1333.9 1309.64,1340.23 1305.5,1346.5C 1303.97,1346.57 1302.97,1345.91 1302.5,1344.5C 1306.56,1338.73 1310.39,1332.73 1314,1326.5C 1318.48,1321.17 1323.65,1316.84 1329.5,1313.5 Z"/></g>
<g><path style="opacity:1" fill="#fefefd" d="M 1334.5,1316.5 C 1344.2,1321.68 1354.2,1326.35 1364.5,1330.5C 1355.04,1341.1 1349.04,1353.43 1346.5,1367.5C 1332.11,1361.8 1318.44,1354.8 1305.5,1346.5C 1309.64,1340.23 1313.81,1333.9 1318,1327.5C 1322.61,1322.37 1328.11,1318.7 1334.5,1316.5 Z"/></g>
<g><path style="opacity:1" fill="#d4d4d3" d="M 1614.5,1329.5 C 1614.11,1343.65 1616.78,1357.32 1622.5,1370.5C 1621.49,1371.67 1620.15,1372.34 1618.5,1372.5C 1616.77,1366.16 1614.94,1359.82 1613,1353.5C 1611.93,1345.87 1611.43,1338.2 1611.5,1330.5C 1612.39,1329.89 1613.39,1329.56 1614.5,1329.5 Z"/></g>
<g><path style="opacity:1" fill="#d4d4d3" d="M 1364.5,1330.5 C 1366.15,1330.66 1367.49,1331.33 1368.5,1332.5C 1358.71,1342.07 1352.55,1353.73 1350,1367.5C 1349.62,1368.06 1349.12,1368.39 1348.5,1368.5C 1347.51,1368.67 1346.84,1368.34 1346.5,1367.5C 1349.04,1353.43 1355.04,1341.1 1364.5,1330.5 Z"/></g>
<g><path style="opacity:1" fill="#fefefd" d="M 1611.5,1330.5 C 1611.43,1338.2 1611.93,1345.87 1613,1353.5C 1614.94,1359.82 1616.77,1366.16 1618.5,1372.5C 1605.86,1377.24 1592.86,1380.91 1579.5,1383.5C 1571.56,1371.68 1567.89,1358.68 1568.5,1344.5C 1583.05,1340.65 1597.38,1335.98 1611.5,1330.5 Z"/></g>
<g><path style="opacity:1" fill="#fefefc" d="M 1368.5,1332.5 C 1377.14,1335.49 1385.81,1338.49 1394.5,1341.5C 1389.21,1354.3 1386.21,1367.63 1385.5,1381.5C 1372.74,1378.14 1360.4,1373.8 1348.5,1368.5C 1349.12,1368.39 1349.62,1368.06 1350,1367.5C 1352.55,1353.73 1358.71,1342.07 1368.5,1332.5 Z"/></g>
<g><path style="opacity:1" fill="#d4d3d3" d="M 1394.5,1341.5 C 1396.1,1341.23 1397.43,1341.57 1398.5,1342.5C 1392.76,1355.19 1389.43,1368.53 1388.5,1382.5C 1387.21,1382.74 1386.21,1382.4 1385.5,1381.5C 1386.21,1367.63 1389.21,1354.3 1394.5,1341.5 Z"/></g>
<g><path style="opacity:1" fill="#fefefc" d="M 1398.5,1342.5 C 1410.45,1345.49 1422.45,1348.15 1434.5,1350.5C 1427.18,1362.8 1423.51,1376.13 1423.5,1390.5C 1411.57,1388.85 1399.91,1386.18 1388.5,1382.5C 1389.43,1368.53 1392.76,1355.19 1398.5,1342.5 Z"/></g>
<g><path style="opacity:1" fill="#d4d4d4" d="M 1564.5,1345.5 C 1565.57,1344.57 1566.9,1344.23 1568.5,1344.5C 1567.89,1358.68 1571.56,1371.68 1579.5,1383.5C 1579.16,1384.34 1578.49,1384.67 1577.5,1384.5C 1576.32,1384.72 1575.32,1384.39 1574.5,1383.5C 1567.38,1371.68 1564.05,1359.01 1564.5,1345.5 Z"/></g>
<g><path style="opacity:1" fill="#fefefc" d="M 1564.5,1345.5 C 1564.05,1359.01 1567.38,1371.68 1574.5,1383.5C 1575.32,1384.39 1576.32,1384.72 1577.5,1384.5C 1561.5,1388.43 1545.17,1391.1 1528.5,1392.5C 1525.37,1379.37 1523.71,1366.04 1523.5,1352.5C 1522.5,1352.5 1521.5,1352.5 1520.5,1352.5C 1535.09,1350.51 1549.76,1348.17 1564.5,1345.5 Z"/></g>
<g><path style="opacity:1" fill="#d4d4d4" d="M 1434.5,1350.5 C 1436.41,1350.22 1438.08,1350.55 1439.5,1351.5C 1436.27,1354.93 1433.77,1358.93 1432,1363.5C 1429.98,1372.81 1427.82,1381.81 1425.5,1390.5C 1424.83,1390.5 1424.17,1390.5 1423.5,1390.5C 1423.51,1376.13 1427.18,1362.8 1434.5,1350.5 Z"/></g>
<g><path style="opacity:1" fill="#fefefd" d="M 1439.5,1351.5 C 1449.18,1352 1458.85,1352.67 1468.5,1353.5C 1469.61,1354.29 1470.94,1354.79 1472.5,1355C 1468.67,1359.98 1467,1365.64 1467.5,1372C 1467.81,1379.64 1468.81,1387.14 1470.5,1394.5C 1455.22,1394.64 1440.22,1393.31 1425.5,1390.5C 1427.82,1381.81 1429.98,1372.81 1432,1363.5C 1433.77,1358.93 1436.27,1354.93 1439.5,1351.5 Z"/></g>
<g><path style="opacity:1" fill="#fefefd" d="M 1520.5,1352.5 C 1519.75,1365.73 1521.08,1378.73 1524.5,1391.5C 1524.14,1392.18 1523.8,1392.85 1523.5,1393.5C 1505.69,1395.08 1488.02,1395.42 1470.5,1394.5C 1471.87,1394.66 1473.21,1394.49 1474.5,1394C 1471.64,1384.06 1470.81,1373.89 1472,1363.5C 1473.43,1359.63 1475.6,1356.29 1478.5,1353.5C 1492.52,1353.7 1506.52,1353.37 1520.5,1352.5 Z"/></g>
<g><path style="opacity:1" fill="#d4d4d3" d="M 1520.5,1352.5 C 1521.5,1352.5 1522.5,1352.5 1523.5,1352.5C 1523.71,1366.04 1525.37,1379.37 1528.5,1392.5C 1527.08,1393.45 1525.41,1393.78 1523.5,1393.5C 1523.8,1392.85 1524.14,1392.18 1524.5,1391.5C 1521.08,1378.73 1519.75,1365.73 1520.5,1352.5 Z"/></g>
<g><path style="opacity:1" fill="#d5d5d4" d="M 1468.5,1353.5 C 1471.83,1353.5 1475.17,1353.5 1478.5,1353.5C 1475.6,1356.29 1473.43,1359.63 1472,1363.5C 1470.81,1373.89 1471.64,1384.06 1474.5,1394C 1473.21,1394.49 1471.87,1394.66 1470.5,1394.5C 1468.81,1387.14 1467.81,1379.64 1467.5,1372C 1467,1365.64 1468.67,1359.98 1472.5,1355C 1470.94,1354.79 1469.61,1354.29 1468.5,1353.5 Z"/></g>
<g><path style="opacity:1" fill="#0376f7" d="M 1771.5,1775.5 C 1770.4,1776.6 1770.24,1777.93 1771,1779.5C 1808.09,1778.5 1845.26,1778.17 1882.5,1778.5C 1903.84,1782.02 1915.34,1794.69 1917,1816.5C 1918.53,1849.99 1912.53,1881.99 1899,1912.5C 1889.93,1931.96 1875.1,1944.79 1854.5,1951C 1815.83,1951.5 1777.17,1951.67 1738.5,1951.5C 1726.06,2021.14 1713.73,2090.81 1701.5,2160.5C 1700.6,2161.21 1700.26,2162.21 1700.5,2163.5C 1619.11,2163.79 1538.11,2163.46 1457.5,2162.5C 1469.29,2092.07 1481.63,2021.74 1494.5,1951.5C 1433.17,1951.67 1371.83,1951.5 1310.5,1951C 1183.49,1946.04 1056.49,1941.21 929.5,1936.5C 933.833,1935.83 938.167,1935.17 942.5,1934.5C 1065.49,1927.6 1188.49,1920.93 1311.5,1914.5C 1310.45,1907.09 1308.95,1899.76 1307,1892.5C 1306.25,1891.87 1305.42,1891.37 1304.5,1891C 1262.09,1885.25 1219.76,1879.08 1177.5,1872.5C 1178.38,1871.75 1179.38,1871.25 1180.5,1871C 1220.59,1868.24 1260.59,1864.74 1300.5,1860.5C 1297.88,1851.18 1294.88,1842.01 1291.5,1833C 1227.07,1823.68 1162.73,1813.84 1098.5,1803.5C 1097.17,1802.83 1095.83,1802.17 1094.5,1801.5C 1112.13,1799.3 1129.8,1797.3 1147.5,1795.5C 1155.12,1796.6 1162.78,1796.77 1170.5,1796C 1165.32,1795.83 1160.32,1795.33 1155.5,1794.5C 1205.74,1788.6 1256.07,1783.1 1306.5,1778C 1380.17,1777.67 1453.83,1777.33 1527.5,1777C 1534.68,1736.75 1542.52,1696.58 1551,1656.5C 1559.53,1621.22 1572.2,1587.56 1589,1555.5C 1604.88,1525.14 1625.05,1498.14 1649.5,1474.5C 1652.5,1472.17 1655.17,1469.5 1657.5,1466.5C 1686.12,1437.77 1719.12,1414.94 1756.5,1398C 1825.79,1369.2 1897.79,1358.54 1972.5,1366C 1998.38,1369.89 2015.88,1384.06 2025,1408.5C 2036.74,1441.54 2042.41,1475.54 2042,1510.5C 2037.69,1522.14 2029.53,1529.64 2017.5,1533C 2003.76,1536.71 1989.76,1538.71 1975.5,1539C 1955.81,1539.19 1936.15,1539.86 1916.5,1541C 1886.56,1545.31 1860.56,1557.64 1838.5,1578C 1818.19,1600.11 1803.69,1625.61 1795,1654.5C 1786.2,1694.66 1778.37,1734.99 1771.5,1775.5 Z"/></g>
<g><path style="opacity:1" fill="#4780a3" d="M 1657.5,1466.5 C 1655.17,1469.5 1652.5,1472.17 1649.5,1474.5C 1651.17,1470.83 1653.83,1468.17 1657.5,1466.5 Z"/></g>
<g><path style="opacity:1" fill="#1478af" d="M 1771.5,1775.5 C 1808.32,1777.16 1845.32,1778.16 1882.5,1778.5C 1845.26,1778.17 1808.09,1778.5 1771,1779.5C 1770.24,1777.93 1770.4,1776.6 1771.5,1775.5 Z"/></g>
<g><path style="opacity:1" fill="#1d75c4" d="M 1147.5,1795.5 C 1149.95,1794.53 1152.61,1794.19 1155.5,1794.5C 1160.32,1795.33 1165.32,1795.83 1170.5,1796C 1162.78,1796.77 1155.12,1796.6 1147.5,1795.5 Z"/></g>
<g><path style="opacity:1" fill="#629897" d="M 1094.5,1801.5 C 1095.83,1802.17 1097.17,1802.83 1098.5,1803.5C 1096.41,1803.68 1094.41,1803.35 1092.5,1802.5C 1091.99,1801.57 1092.65,1801.23 1094.5,1801.5 Z"/></g>
<g><path style="opacity:1" fill="#278bb7" d="M 942.5,1934.5 C 938.167,1935.17 933.833,1935.83 929.5,1936.5C 927.712,1936.79 926.045,1936.45 924.5,1935.5C 930.463,1934.5 936.463,1934.17 942.5,1934.5 Z"/></g>
<g><path style="opacity:1" fill="#027ae6" d="M 1701.5,2160.5 C 1701.5,2161.83 1701.5,2163.17 1701.5,2164.5C 1619.83,2164.5 1538.17,2164.5 1456.5,2164.5C 1456.33,2163.51 1456.66,2162.84 1457.5,2162.5C 1538.11,2163.46 1619.11,2163.79 1700.5,2163.5C 1700.26,2162.21 1700.6,2161.21 1701.5,2160.5 Z"/></g>
</svg>
